<svg xmlns="http://www.w3.org/2000/svg" style="display: none;"><symbol id="image-gallery" viewBox="0 0 24 24"><title>image-gallery</title><g><path d="m17.453 24c-.168 0-.34-.021-.51-.066l-15.463-4.141c-1.06-.292-1.692-1.39-1.414-2.45l1.951-7.272c.072-.267.346-.422.612-.354.267.071.425.346.354.612l-1.95 7.27c-.139.53.179 1.082.71 1.229l15.457 4.139c.531.14 1.079-.176 1.217-.704l.781-2.894c.072-.267.346-.426.613-.353.267.072.424.347.353.613l-.78 2.89c-.235.89-1.045 1.481-1.931 1.481z"/></g><g><path d="m22 18h-16c-1.103 0-2-.897-2-2v-12c0-1.103.897-2 2-2h16c1.103 0 2 .897 2 2v12c0 1.103-.897 2-2 2zm-16-15c-.551 0-1 .449-1 1v12c0 .551.449 1 1 1h16c.551 0 1-.449 1-1v-12c0-.551-.449-1-1-1z"/></g><g><path d="m9 9c-1.103 0-2-.897-2-2s.897-2 2-2 2 .897 2 2-.897 2-2 2zm0-3c-.551 0-1 .449-1 1s.449 1 1 1 1-.449 1-1-.449-1-1-1z"/></g><g><path d="m4.57 16.93c-.128 0-.256-.049-.354-.146-.195-.195-.195-.512 0-.707l4.723-4.723c.566-.566 1.555-.566 2.121 0l1.406 1.406 3.892-4.67c.283-.339.699-.536 1.142-.54h.011c.438 0 .853.19 1.139.523l5.23 6.102c.18.209.156.525-.054.705-.209.18-.524.157-.705-.054l-5.23-6.102c-.097-.112-.231-.174-.38-.174-.104-.009-.287.063-.384.18l-4.243 5.091c-.09.108-.221.173-.362.179-.142.01-.277-.046-.376-.146l-1.793-1.793c-.189-.188-.518-.188-.707 0l-4.723 4.723c-.097.097-.225.146-.353.146z"/></g></symbol><symbol id="location" viewBox="0 0 128 128"><title>location</title><path d="m78.777 37.021a14.777 14.777 0 1 0 -14.777 14.779 14.795 14.795 0 0 0 14.777-14.779zm-26.054 0a11.277 11.277 0 1 1 11.277 11.279 11.29 11.29 0 0 1 -11.277-11.279z"/><path d="m123.328 121.069-14.266-37.4a1.751 1.751 0 0 0 -1.635-1.126h-27c.165-.269.329-.53.494-.8 10.389-17.2 15.617-32.246 15.542-44.714a32.464 32.464 0 0 0 -64.928-.011c-.075 12.479 5.153 27.527 15.542 44.725.165.273.329.534.494.8h-27a1.751 1.751 0 0 0 -1.635 1.126l-14.264 37.4a1.748 1.748 0 0 0 1.635 2.374h115.386a1.748 1.748 0 0 0 1.635-2.374zm-88.292-84.048a28.964 28.964 0 1 1 57.928.01c.15 24.858-23.09 55.517-28.964 62.869-5.874-7.349-29.115-38-28.964-62.879zm27.631 66.779a1.75 1.75 0 0 0 2.666 0 185.716 185.716 0 0 0 12.9-17.759h27.987l2.24 5.875-54.691 19.451-19.494-25.329h15.49a185.716 185.716 0 0 0 12.902 17.762zm-8.959 11.3h.01l32.627-11.6 12.655 16.443h-58.9zm-31.93-29.062h8.08l20.442 26.562-20.643 7.342h-20.81zm81.643 33.905-13.609-17.682 19.9-7.077 9.443 24.759z"/></symbol><symbol id="portfolio" viewBox="0 0 512.011 512.011"><title>portfolio</title><path d="M187.733,357.193v18.279c0.015,14.132,11.468,25.585,25.6,25.6H332.8c14.132-0.015,25.585-11.468,25.6-25.6v-18.279 c16.638-4.267,27.496-20.254,25.328-37.293s-16.685-29.798-33.861-29.761c-17.177-0.037-31.693,12.722-33.861,29.761 s8.69,33.027,25.328,37.293v18.279c-0.005,4.711-3.823,8.529-8.533,8.533H213.333c-4.711-0.005-8.529-3.822-8.533-8.533v-18.279 c16.643-4.297,27.494-20.299,25.328-37.35c-2.166-17.051-16.673-29.832-33.861-29.832s-31.695,12.781-33.861,29.832 C160.24,336.894,171.091,352.896,187.733,357.193z M333.382,319.768c1.999-7.461,8.761-12.649,16.485-12.649 s14.486,5.188,16.485,12.649c1.999,7.461-1.262,15.335-7.952,19.197v-6.159c0-4.713-3.82-8.533-8.533-8.533 s-8.533,3.821-8.533,8.533v6.159C334.644,335.103,331.382,327.229,333.382,319.768z M193.245,307.388 c8.162-1.468,16.199,3.144,19.048,10.932s-0.312,16.498-7.494,20.645v-6.159c0-4.713-3.82-8.533-8.533-8.533 s-8.533,3.821-8.533,8.533v6.159c-5.262-3.025-8.513-8.624-8.533-14.693C179.158,315.979,185.083,308.856,193.245,307.388z"/><path d="M508.88,263.239c-3.198-4.538-8.404-7.236-13.955-7.234h-51.191v-42.692c48.812-20.333,76.484-72.295,66.112-124.145 c-10.371-51.85-55.902-89.17-108.779-89.163c-28.661,0.001-56.2,11.142-76.8,31.069V17.072 c-0.011-9.421-7.645-17.056-17.067-17.067H102.4c-9.421,0.011-17.056,7.645-17.067,17.067v153.6h-76.8 c-0.517,0.053-1.027,0.156-1.524,0.307c-0.469,0.029-0.935,0.099-1.393,0.209c-0.067,0.025-0.109,0.081-0.175,0.106 c-0.602,0.275-1.168,0.62-1.688,1.029c-0.394,0.223-0.77,0.476-1.123,0.758c-0.367,0.411-0.692,0.858-0.97,1.333 c-0.34,0.414-0.64,0.859-0.896,1.329c-0.15,0.444-0.264,0.9-0.34,1.362c-0.2,0.612-0.327,1.246-0.381,1.888 C0.041,179.069,0,179.131,0,179.206v324.267c0,0.11,0.059,0.202,0.063,0.313c0.022,1.002,0.222,1.991,0.59,2.923 c0.044,0.108,0.115,0.198,0.163,0.303c0.204,0.481,0.453,0.943,0.742,1.378c0.227,0.288,0.473,0.56,0.736,0.815 c0.131,0.144,0.243,0.29,0.383,0.424c0.684,0.651,1.473,1.182,2.333,1.572c0.178,0.081,0.359,0.135,0.544,0.205 c0.948,0.379,1.957,0.583,2.978,0.601h407.154c7.211-0.012,13.641-4.545,16.075-11.333L511,278.814 C512.869,273.587,512.078,267.777,508.88,263.239z M401.067,17.072c51.841,0,93.867,42.026,93.867,93.867 c-0.059,51.817-42.05,93.808-93.867,93.867c-51.841,0-93.867-42.026-93.867-93.867S349.226,17.072,401.067,17.072z M426.667,218.771v37.234H409.6V221.44C415.35,220.999,421.056,220.106,426.667,218.771z M187.733,102.406h102.832 c-0.217,2.825-0.432,5.653-0.432,8.533c0.089,57.903,44.671,106.012,102.4,110.501v34.566h-204.8V102.406z M170.667,102.406 v153.6h-25.6V59.739h157.688c-4.224,8.105-7.422,16.705-9.52,25.6H187.733C178.312,85.35,170.677,92.984,170.667,102.406z M102.4,17.072h204.8v25.6H145.067c-9.421,0.011-17.056,7.645-17.067,17.067v196.267h-25.6V17.072z M85.333,187.739v69.571 l-37.071,6.18l-27.545-75.75H85.333z M17.067,227.648l15.154,41.675c2.811,7.731,10.737,12.356,18.85,11l29.876-4.979 l-63.88,178.865V227.648z M415.688,494.939H20.642L99.88,273.072h395.045L415.688,494.939z"/><path d="M343.108,135.18c10.796,21.983,38.088,41.533,53.392,51.233c2.788,1.767,6.345,1.767,9.133,0 c15.304-9.7,42.596-29.25,53.283-51.017c14.562-27.667,13.904-55.108-1.671-69.892c-8.787-7.832-20.373-11.767-32.112-10.908 c-8.667,0.399-17.03,3.315-24.067,8.392c-7.036-5.076-15.399-7.992-24.067-8.392c-11.737-0.86-23.321,3.073-32.108,10.9 C329.313,80.289,328.654,107.731,343.108,135.18z M356.646,77.872c4.908-4.237,11.227-6.48,17.708-6.283 c0.575,0,1.15,0.017,1.725,0.05c7.054,0.178,13.73,3.231,18.479,8.45c1.668,1.831,4.031,2.875,6.508,2.875 c2.477,0,4.84-1.044,6.508-2.875c4.749-5.219,11.425-8.272,18.479-8.45c7.054-0.61,14.057,1.639,19.438,6.242 c9.583,9.1,8.896,29.483-1.783,49.784c-10.692,17.01-25.316,31.201-42.642,41.375c-17.39-10.221-32.056-24.489-42.75-41.591 C347.746,107.364,347.058,86.981,356.646,77.872z"/></symbol></svg>