<svg xmlns="http://www.w3.org/2000/svg" style="display: none;"><symbol id="bride" viewBox="-89 0 512 512.00179"><title>bride</title><path d="m323.253906 395.761719c-7.667968-19.609375-19.164062-37.539063-33.585937-52.722657 16.511719-14.128906 21.273437-40.441406 10.519531-59.375-1.238281-2.175781-2.644531-4.253906-4-6.265624-3.0625-4.527344-5.953125-8.800782-6.5-13.5-.601562-5.160157 1.667969-10.351563 4.074219-15.851563 2-4.574219 4.070312-9.304687 4.746093-14.515625 1.328126-10.203125-2.894531-19.304688-6.972656-28.105469-3.027344-6.527343-5.882812-12.691406-6.539062-19.113281-.695313-6.859375 1.152344-13.730469 3.109375-21.007812 1.011719-3.765626 2.058593-7.65625 2.746093-11.613282 2.753907-15.777344-.464843-32.664062-8.832031-46.324218-7.417969-12.101563-18.933593-21.746094-32.113281-27.066407 4.101562-12.441406 3.984375-26.125-.503906-38.503906-2.34375-6.457031-5.570313-10.648437-9.871094-12.808594-2.742188-1.378906-6.089844-1.675781-9.121094-.875-1.460937-6.613281-5.832031-12.597656-11.976562-15.617187-7.125-3.503906-15.945313-2.683594-22.5 1.632812-4.253906-7.195312-11.753906-12.496094-20.035156-13.804687-9.015626-1.425781-18.617188 1.9375-24.933594 8.5-10.3125-5.050781-22.941406-4.902344-33.085938.605469-9.695312 5.261718-16.527344 15.089843-18.320312 25.90625-6.367188-.6875-13.246094 1.960937-17.785156 7.242187-6.242188 7.261719-7.933594 22.101563-3.613282 31.753906 1.011719 2.269531 2.320313 4.179688 3.871094 5.722657-19.621094 11.089843-33.707031 31.90625-36.382812 54.300781-.542969 4.535156-.65625 9.140625-.765626 13.589843-.214843 8.742188-.417968 17-3.664062 24.335938-1.898438 4.289062-4.808594 8.167969-7.890625 12.277344-4.246094 5.664062-8.644531 11.523437-10.496094 18.835937-2.210937 8.714844-.285156 17.246094 1.574219 25.496094 1.3125 5.816406 2.550781 11.308594 2.394531 16.734375-.246093 8.507812-3.886719 16.460938-7.746093 24.878906-2.480469 5.417969-5.050782 11.027344-6.726563 16.933594-6.410156 22.566406 2.183594 48.902344 20.472656 63.558594-11.148437 12.558594-19.878906 28.460937-25.296875 46.640625-8.875 29.761719-8.253906 61.179687-6.265625 90.695312.28125 4.199219.808594 12.007813 6.570313 16.304688 4.042968 3.011719 9.035156 3.082031 12.683594 3.132812l292.257812 4.222657c.359375.003906.742188.007812 1.136719.007812 2.375 0 5.296875-.199219 7.929687-1.847656 3.953125-2.480469 5.296875-7.058594 6.019532-9.515625 10.070312-34.320313 8.441406-71.566407-4.582032-104.875zm-48.109375-284.179688c7.355469 12.007813 10.1875 26.851563 7.765625 40.726563-.625 3.59375-1.582031 7.144531-2.589844 10.902344-2.0625 7.660156-4.191406 15.585937-3.34375 23.917968.789063 7.769532 4.070313 14.847656 7.242188 21.6875 3.765625 8.121094 7.320312 15.789063 6.296875 23.679688-.53125 4.070312-2.28125 8.078125-4.136719 12.320312-2.730468 6.238282-5.550781 12.691406-4.699218 20.015625.777343 6.652344 4.359374 11.957031 7.828124 17.085938 1.328126 1.964843 2.585938 3.824219 3.667969 5.730469 9.03125 15.894531 4.875 38.054687-9.21875 49.664062-7.855469-7.492188-16.460937-14.214844-25.695312-20.007812 12.1875-11.613282 19.585937-28.398438 18.5625-45.292969-.5625-9.195313-3.3125-17.933594-5.976563-26.382813-2.476562-7.859375-4.816406-15.289062-5.511718-23.007812-.972657-10.769532 1.296874-21.390625 3.703124-32.632813 1.367188-6.402343 2.78125-13.023437 3.546876-19.683593 3.082031-26.859376-4.773438-56.789063-20.699219-80.238282 9.492187 4.914063 17.6875 12.425782 23.257812 21.515625zm-108.457031 237.601563c.769531 0 1.539062.082031 2.304688.25 6.140624 1.347656 10.882812 6.15625 12.367187 12.554687 1.425781 6.121094-.523437 12.007813-5.210937 15.746094-4.523438 3.605469-11.191407 4.941406-17.398438 3.480469-4.359375-1.023438-7.808594-3.28125-9.460938-6.199219-3.125-5.523437-.570312-12.464844 2.867188-17.121094 3.378906-4.574219 8.957031-8.710937 14.53125-8.710937zm-3.441406-9.042969c-3.929688-.390625-7.746094-2.695313-11.316406-5.027344-14.621094-9.546875-28.03125-20.894531-39.875-33.726562 7.074218-10.507813 11.457031-22.820313 12.296874-35.558594 10.679688 5.472656 22.390626 8.929687 34.394532 9.933594 2.484375.210937 4.972656.3125 7.464844.3125 11.546874 0 23.046874-2.238281 33.796874-6.40625.082032 9.957031 3.519532 19.765625 9.804688 27.566406 1.601562 1.984375 3.375 3.808594 5.28125 5.472656-5.605469 5.105469-10.640625 9.21875-15.511719 13.199219-4.980469 4.070312-10.132812 8.277344-15.9375 13.566406-6.347656 5.792969-13.152343 11.382813-20.398437 10.667969zm-77.34375-73.3125c1.460937-4.125 3.3125-8.289063 5.101562-12.3125 1.628906-3.671875 3.285156-7.40625 4.722656-11.246094 6.027344 7.074219 13.128907 13.199219 20.960938 18.179688-.148438.402343-.25.828125-.257812 1.285156-.503907 21.625-13.28125 42.996094-32 53.847656-4.554688-16.21875-4.15625-33.832031 1.472656-49.753906zm12.996094-63.089844c-.945313-9.128906-1.839844-17.753906-.144532-26.128906 3.675782-18.183594 19.128906-32.179687 35.277344-44.59375l2.074219-1.59375c11.472656-8.804687 23.226562-17.820313 31.691406-29.253906 1.695313 8.523437 6.371094 17.960937 15.5625 26.914062 6.738281 6.558594 14.539063 11.777344 22.085937 16.824219 4.878907 3.265625 9.921876 6.636719 14.519532 10.285156 7.742187 6.144532 20.699218 18.785156 20.484375 34.4375-.109375 7.777344-3.375 15.28125-6.835938 23.222656-4.046875 9.300782-8.21875 18.902344-7.183593 29.371094-.121094.09375-.246094.175782-.359376.289063-17.371093 17.207031-42.289062 26.257812-66.652343 24.21875-23.878907-2-46.503907-14.605469-60.828125-33.800781.246094-1.066407.464844-2.144532.644531-3.234376 1.515625-9.066406.574219-18.160156-.335937-26.957031zm117.191406 88.4375c-5.808594-7.210937-8.710938-16.914062-7.871094-26.144531 7.355469-3.6875 14.238281-8.3125 20.371094-13.824219 1.6875 4.449219 4.070312 8.558594 6.410156 12.578125 2.734375 4.699219 5.320312 9.140625 6.714844 13.914063 2.515625 8.605469 1 17.628906-2.320313 26.652343-8.992187-1.269531-17.613281-6.117187-23.304687-13.175781zm33.363281-15.734375c-1.667969-5.71875-4.625-10.800781-7.484375-15.710937-3.335938-5.730469-6.484375-11.144531-7.375-17.078125-1.324219-8.808594 2.433594-17.441406 6.414062-26.582032 3.621094-8.324218 7.371094-16.933593 7.5-26.332031.199219-14.15625-8.160156-28.667969-23.53125-40.863281-4.855468-3.851562-10.035156-7.316406-15.050781-10.671875-7.578125-5.066406-14.734375-9.855469-20.941406-15.898437-13.824219-13.464844-15.503906-28.042969-12.738281-36.441407.683594-2.078125-.417969-4.328125-2.480469-5.058593-2.066406-.734376-4.339844.316406-5.117187 2.363281-6.527344 17.128906-22.25 29.191406-37.453126 40.855469l-2.082031 1.597656c-17.390625 13.371094-34.058593 28.605468-38.265625 49.386718-1.9375 9.582032-.9375 19.230469.03125 28.5625.894532 8.640626 1.738282 16.804688.40625 24.792969-1.253906 7.484375-4.359375 14.472657-7.652344 21.871094-1.851562 4.171875-3.769531 8.480469-5.332031 12.90625-7.636719 21.601563-6.511719 46.035156 2.804688 66.921875-13.6875-4.234375-23.425781-15.84375-27.214844-32.871094-4.335937-19.488281-6.441406-36.769531-2.609375-57.75 1.785156-9.796875 4.296875-19.691406 6.722656-29.253906 2.855469-11.242188 5.804688-22.867188 7.664063-34.601562 1.09375-6.894532 1.824219-13.910157 2.527343-20.691407 1.019532-9.828125 2.078126-19.984375 4.25-29.664062 4.183594-18.636719 12.121094-32.371094 23.59375-40.824219.5-.367188.878907-.835938 1.152344-1.351562 4.726563-1.179688 8.972656-4.210938 12.808594-6.980469 1.882812-1.355469 3.660156-2.636719 5.277344-3.535157 7.308594-4.070312 15.09375-7.304687 23.136718-9.621093 9.332032-2.683594 18.882813-4.09375 28.390626-4.195313 26.53125-.304687 52.972656 9.628906 72.8125 27.246094.109374.191406.222656.382812.363281.558594 18.363281 22.699218 27.785156 54.0625 24.59375 81.855468-.71875 6.277344-2.09375 12.703126-3.421875 18.914063-2.425782 11.339844-4.929688 23.058594-3.847656 35.046875.777343 8.585938 3.359374 16.78125 5.855468 24.707031 2.628906 8.351563 5.113282 16.238281 5.613282 24.445313 1.152343 18.960937-10.03125 37.761718-26.601563 46.714844 6.777344-13.867188 11.503906-28.316407 7.28125-42.769532zm-161.5625-228.609375c3.484375-4.058593 9.320313-5.664062 13.574219-3.734375 1.234375.5625 2.671875.460938 3.816406-.261718 1.148438-.726563 1.855469-1.980469 1.878906-3.335938.175782-9.714844 6.027344-19.351562 14.566406-23.984375 8.535157-4.632813 19.808594-4.289063 28.046876.855469 1.789062 1.121094 4.144531.667968 5.390624-1.039063 4.355469-5.964843 12.183594-9.199219 19.476563-8.042969 7.292969 1.152344 13.742187 6.640626 16.046875 13.660157.453125 1.382812 1.621094 2.414062 3.050781 2.699219 1.429688.28125 2.902344-.234376 3.847657-1.339844 4.066406-4.773438 11.660156-6.34375 17.289062-3.578125 5.625 2.765625 9.019531 9.738281 7.730469 15.875-.449219 2.136719.882812 4.242187 3.003906 4.753906 2.125.503906 4.265625-.769531 4.832031-2.878906.183594-.6875.832032-1.101563 1.34375-1.332031 1.257813-.566407 2.953125-.546876 4.125.042968 2.371094 1.191406 4.304688 3.925782 5.910156 8.355469 3.953126 10.898437 3.992188 22.972656.226563 33.878906-20.652344-17.105469-47.300781-26.773437-74.136719-26.773437-.398437 0-.796875 0-1.191406.003906-10.234375.109375-20.507812 1.628906-30.539062 4.515625-8.628907 2.480469-16.980469 5.957031-24.828126 10.320313-2.027343 1.128906-4.082031 2.613281-6.066406 4.042968-4.125 2.972656-8.371094 6.0625-12.191406 5.972656-3.480469-.066406-5.960938-1.855468-7.578125-5.46875-3.328125-7.449218-1.425781-18.789062 2.375-23.207031zm-67.804687 241.804688c1.507812-5.3125 3.835937-10.394531 6.300781-15.777344 4.023437-8.78125 8.183593-17.859375 8.472656-28.003906.1875-6.441407-1.222656-12.695313-2.585937-18.742188-1.730469-7.660156-3.363282-14.898437-1.628907-21.738281 1.460938-5.75 5.1875-10.71875 9.136719-15.980469 3.214844-4.289062 6.542969-8.722656 8.8125-13.851562 3.890625-8.796875 4.125-18.253907 4.351562-27.398438.105469-4.265625.214844-8.671875.710938-12.832031 2.003906-16.769531 11.210938-32.539062 24.492188-42.976562-6.15625 8.617187-10.699219 19.359374-13.566407 32.128906-2.277343 10.140625-3.359375 20.539062-4.40625 30.597656-.691406 6.675781-1.410156 13.582031-2.46875 20.261719-1.800781 11.371093-4.707031 22.8125-7.515625 33.878906-2.460937 9.699219-5.003906 19.722656-6.84375 29.792969-4.308594 23.628906-1.261718 43.257812 2.675782 60.949218 2.703124 12.152344 8.054687 21.964844 15.511718 28.945313-8.367187 4.058594-16.128906 9.550781-23.109375 16.253906-16.253906-12.589843-23.960937-35.714843-18.339843-55.507812zm242.390624 213.5625-187.105468-2.703125c-6.191406-13.074219-11.226563-26.789063-14.960938-40.765625-2.585937-9.675781-5.320312-22.328125-3.484375-34.367188 1.824219-11.980469 8.183594-21.886719 17.007813-26.492187 10.546875-5.503906 23.945312-3.285156 33.105468-1.140625 11.847657 2.777343 20.835938 6.289062 28.277344 11.054687 8.929688 5.714844 15.539063 13.492188 18.613282 21.898438.527343 1.441406 1.828124 2.457031 3.355468 2.621094 1.523438.167968 3.011719-.550782 3.835938-1.847657 14.4375-22.765625 41.1875-37.6875 68.144531-38.011719 8.851563-.109374 21.28125 1.378907 30.273437 9.058594 7.160157 6.109375 11.988282 16.089844 14.355469 29.664063 4.171875 23.941406.207031 48.953125-11.171875 70.425781-.101562.195312-.175781.398438-.246094.605469zm57.621094-4.835938c-.625 2.128907-1.367187 4.203125-2.5625 4.953125-1.058594.664063-3.058594.636719-4.667968.609375l-41.488282-.597656c11.015625-22.351563 14.742188-47.972656 10.457032-72.546875-2.699219-15.46875-8.4375-27.046875-17.058594-34.410156-10.898438-9.304688-25.394532-11.085938-35.609375-10.992188-27.222657.328125-54.253907 14.210938-70.761719 35.878906-4.214844-7.421874-10.683594-14.105468-18.742188-19.265624-8.234374-5.273438-18.019531-9.121094-30.785156-12.113282-10.410156-2.4375-25.75-4.902344-38.671875 1.84375-11.097656 5.789063-19.042969 17.914063-21.253906 32.425782-2.058594 13.515624.878906 27.226562 3.667969 37.664062 3.523437 13.175781 8.171875 26.121094 13.8125 38.554688l-45.824219-.660157c-3.300781-.046875-6.179687-.195312-7.976563-1.539062-2.574218-1.914063-3.078124-6.359375-3.347656-10.378907-1.941406-28.761718-2.5625-59.3125 5.945313-87.851562 9.191406-30.828125 28.386719-54.558594 52.667969-65.113281.300781-.128907.566406-.300781.816406-.488281 5.65625 3.421874 12.140625 5.574218 19.316406 6.304687.132812.011719.269531.019531.40625.019531 1.351562 0 2.628906-.683594 3.375-1.832031.824219-1.265625.875-2.882813.128906-4.195313-1.882812-3.304687-3.515625-6.742187-4.902344-10.277343 7.691407-4.199219 14.476563-9.832031 20.089844-16.453125 12.046875 12.886718 25.621094 24.316406 40.394532 33.960937 1.878906 1.226563 3.914062 2.488281 6.097656 3.574219-2.921875 1.960938-5.640625 4.539062-7.953125 7.667969-6.300781 8.535156-7.601563 18.453125-3.394531 25.882812 2.796874 4.9375 7.992187 8.515625 14.632812 10.078125 2.308594.542969 4.644531.808594 6.957031.808594 6.375 0 12.535157-2.027344 17.3125-5.839844 7.070313-5.640625 10.152344-14.789062 8.039063-23.875-1.605469-6.890625-5.808594-12.535156-11.53125-15.875 4.132812-2.4375 7.917968-5.683594 11.394531-8.851562 5.640625-5.148438 10.707031-9.28125 15.605469-13.285156 4.980468-4.070313 10.132812-8.277344 15.9375-13.570313.378906-.34375.667968-.75.882812-1.183594 4.507813 2.710938 9.492188 4.617188 14.691406 5.597657-1.878906 4.058593-3.996093 8.089843-6.152343 12.066406-.769531 1.417968-.621094 3.160156.382812 4.425781 1.003907 1.265625 2.664063 1.8125 4.222657 1.382813 6.144531-1.675782 11.882812-4.488282 17.039062-8.140626 28.988281 17.476563 51.730469 44.441407 64.058594 75.972657 12.375 31.65625 13.921875 67.050781 4.351562 99.664062zm0 0"/></symbol><symbol id="salon" viewBox="0 0 512 512"><title>salon</title><g> <g> <path d="M505.316,6.671c-0.025-0.024-0.052-0.045-0.076-0.069C501.005,2.405,495.169,0,489.212,0h-0.03 c-5.149,0-10.189,1.77-14.189,4.979c-54.449,43.49-109.099,88.38-162.438,133.42c-12.97,10.951-25.951,21.988-38.92,33.086 L125.557,23.409c-14.622-14.62-38.412-14.618-53.033,0L2.197,93.737c-2.929,2.93-2.929,7.678,0,10.607 c2.929,2.928,7.678,2.928,10.606,0L61.918,55.23l10.733,10.733l-49.114,49.114c-2.929,2.93-2.929,7.678,0,10.607 c1.464,1.464,3.384,2.196,5.303,2.196c1.919,0,3.839-0.732,5.303-2.196L83.258,76.57l10.733,10.733l-49.115,49.114 c-2.929,2.93-2.929,7.678,0,10.607c1.464,1.464,3.384,2.196,5.303,2.196s3.839-0.732,5.303-2.196l49.115-49.115l10.733,10.733 l-49.114,49.114c-2.929,2.93-2.929,7.678,0,10.607c1.464,1.464,3.384,2.196,5.303,2.196c1.919,0,3.839-0.732,5.303-2.196 l49.114-49.114l10.733,10.733l-49.114,49.114c-2.929,2.93-2.929,7.678,0,10.607c1.464,1.464,3.384,2.196,5.303,2.196 s3.839-0.732,5.303-2.196l49.114-49.114l10.733,10.733l-49.114,49.114c-2.929,2.93-2.929,7.678,0,10.607 c1.464,1.464,3.384,2.196,5.303,2.196s3.839-0.732,5.303-2.196l49.114-49.114l10.733,10.733l-49.114,49.114 c-2.929,2.93-2.929,7.678,0,10.607c1.464,1.464,3.384,2.196,5.303,2.196s3.839-0.732,5.303-2.196l49.114-49.114l10.734,10.734 l-49.114,49.114c-2.929,2.93-2.929,7.678,0,10.607c1.464,1.464,3.384,2.196,5.303,2.196c1.919,0,3.839-0.732,5.303-2.196 l49.115-49.115l11.111,11.111c-23.029,20.055-45.939,40.229-68.591,60.428c-0.01,0-0.01,0-0.01,0.011 c-6.729,5.985-14.069,12.879-21.31,19.409c-4.436,3.209-3.591,8.85-1.39,11.051c0,0,0,0.01,0.01,0.01 c7.22,8.74,11.21,19.9,11.21,31.439c0,13.49-5.19,26.11-14.619,35.53c-0.095,0.095-22.522,22.523-22.62,22.62 C72.47,429.593,15.033,406.818,15,359.55c0.02-28.697,23.197-52.399,52.479-52.42c15.949,0.01,30.839,7.11,40.849,19.46 c2.715,3.346,7.7,3.708,10.86,0.84c0.04-0.03,0.07-0.06,0.11-0.1l0.07-0.061c3.513-3.158,3.265-8.849-0.66-11.66 c-12.82-14.92-31.47-23.479-51.179-23.479h-0.1c-37.498,0-67.472,30.535-67.428,67.42c-0.033,27.794,16.952,52.344,42.079,62.55 c14.92,6.042,31.264,6.458,46.028,1.725C74.036,467.601,106.787,512,152.307,512h0.08c37.196,0,67.51-30.112,67.469-67.46 c0.02-17.75-6.82-34.5-19.23-47.181c0.007-0.008,15.314-17.409,15.314-17.409c27.02-30.067,53.747-60.271,80.15-90.548l11.3,11.3 l-49.114,49.114c-2.929,2.93-2.929,7.678,0,10.607c1.465,1.464,3.385,2.196,5.304,2.196c1.919,0,3.839-0.732,5.304-2.196 l49.114-49.114l10.733,10.733l-49.114,49.114c-2.929,2.93-2.929,7.678,0,10.607c1.465,1.464,3.385,2.196,5.304,2.196 c1.919,0,3.839-0.732,5.304-2.196l49.114-49.114l10.732,10.732l-49.114,49.114c-2.929,2.93-2.929,7.678,0,10.607 c1.465,1.464,3.385,2.196,5.304,2.196c1.919,0,3.839-0.732,5.304-2.196l49.114-49.114l10.732,10.732l-49.114,49.115 c-2.929,2.93-2.929,7.678,0,10.607c1.465,1.464,3.385,2.196,5.304,2.196c1.919,0,3.839-0.732,5.304-2.196l49.114-49.115 l10.733,10.733l-49.114,49.114c-2.929,2.93-2.929,7.678,0,10.607c1.465,1.464,3.385,2.196,5.304,2.196 c1.919,0,3.839-0.732,5.304-2.196l49.114-49.114l10.732,10.732l-49.114,49.114c-2.929,2.93-2.929,7.678,0,10.607 c1.465,1.464,3.385,2.196,5.304,2.196c1.919,0,3.839-0.732,5.304-2.196l49.114-49.114l10.732,10.732l-49.114,49.114 c-2.929,2.93-2.929,7.678,0,10.607c1.465,1.464,3.385,2.196,5.304,2.196c1.919,0,3.839-0.732,5.304-2.196l49.114-49.114 l10.732,10.732l-49.114,49.114c-2.929,2.93-2.929,7.678,0,10.607c1.465,1.464,3.385,2.196,5.304,2.196 c1.919,0,3.839-0.732,5.304-2.196l54.41-54.411c0.002-0.002,0.005-0.005,0.008-0.007c0.003-0.002,0.005-0.005,0.007-0.008 l15.902-15.902c7.083-7.083,10.984-16.5,10.984-26.517c0-10.017-3.901-19.434-10.983-26.517L340.352,238.205 c57.504-67.082,113.25-134.367,166.663-201.215C514.263,27.919,513.531,14.885,505.316,6.671z M72.525,44.623l10.606-10.606 c8.772-8.772,23.047-8.772,31.82,0l147.268,147.269c-9.501,8.162-18.994,16.346-28.468,24.565L72.525,44.623z M477.984,397.05 c4.25,4.249,6.591,9.899,6.591,15.909s-2.341,11.66-6.591,15.909l-10.606,10.606C462.422,434.52,316.603,288.7,305.962,278.06 c8.23-9.473,16.432-18.952,24.594-28.437L477.984,397.05z M208.956,365.264c-3.635-2.783-13.327-7.601-14.939-21.285 c-0.45-3.779-3.64-6.62-7.43-6.62c-4.531,0-7.984,3.935-7.47,8.381c0.01,0,0.01,0,0.01,0c1.43,12.229,8.07,23.04,18.21,29.649 c0.53,0.351,1.06,0.71,1.61,1.11c-5.202,5.935-9.496,10.932-14.42,16.37c-1.37,1.52-2.07,3.569-1.91,5.609 c0.15,2.04,1.16,3.96,2.75,5.25c12.587,10.275,19.478,25.063,19.49,40.811c-0.021,28.904-23.306,52.44-52.499,52.46 c-28.854-0.038-52.499-23.293-52.499-52.46c0.034-23.737,15.047-36.449,16.2-38.08l22.25-22.25 c12.258-12.258,19.019-28.842,19.019-46.141c0.01-12.64-3.61-24.85-10.449-35.289c5.872-5.37,10.979-10.135,16.91-15.421 l0.03-0.04C326.433,142.326,482.44,17.689,485.372,16.01c-2.011,2.011-294.635,294.509-295.985,296.03 c-2.75,3.1-2.46,7.85,0.63,10.59c3.106,2.766,7.863,2.442,10.59-0.63c0.897-1.022,293.229-293.247,295.372-295.39 C495.366,27.689,374.581,180.679,208.956,365.264z"/> </g> </g><g> <g> <path d="M94.026,333.076c-23.657-23.656-64.022-6.61-64.02,26.511c0,10.011,3.903,19.426,10.99,26.512 c7.311,7.31,16.911,10.963,26.515,10.963c9.601,0,19.205-3.655,26.515-10.963C108.663,371.465,108.665,347.711,94.026,333.076z M83.421,375.491c-8.773,8.769-23.047,8.771-31.82,0c-14.05-14.049-4.212-38.387,15.91-38.387 C87.691,337.105,97.407,361.507,83.421,375.491z"/> </g> </g><g> <g> <path d="M152.361,407.051c-15.421,0-28.668,8.854-34.572,23.108c-5.933,14.324-2.845,29.995,8.058,40.896 c7.242,7.24,16.571,11.036,26.205,11.036c4.867,0,9.813-0.97,14.603-2.954c14.313-5.93,23.205-19.186,23.205-34.595 C189.859,423.87,173.038,407.051,152.361,407.051z M160.913,465.28c-6.71,2.778-16.659,2.969-24.462-4.832 c-7.807-7.806-7.6-17.799-4.805-24.549c2.773-6.695,9.671-13.849,20.714-13.849c12.406,0,22.499,10.09,22.499,22.492 C174.859,455.572,167.655,462.487,160.913,465.28z"/> </g> </g></symbol><symbol id="hair-dye" viewBox="0 0 512.033 512.033"><title>hair-dye</title><path d="m371.137 512.033h-210.391c-12.406 0-22.5-10.094-22.5-22.5v-10.085c-52.539-24.225-108.305-96.094-108.305-140.945 0-12.406 10.094-22.5 22.5-22.5h34.042c4.143 0 7.5 3.357 7.5 7.5s-3.357 7.5-7.5 7.5h-34.042c-4.136 0-7.5 3.364-7.5 7.5 0 17.924 12.578 45.094 32.825 70.906 20.752 26.457 46.618 47.889 69.479 57.624h154.771c4.143 0 7.5 3.357 7.5 7.5s-3.357 7.5-7.5 7.5h-148.77v7.5c0 4.136 3.364 7.5 7.5 7.5h210.391c4.136 0 7.5-3.364 7.5-7.5v-7.5h-46.619c-4.143 0-7.5-3.357-7.5-7.5s3.357-7.5 7.5-7.5h52.619c22.861-9.735 48.728-31.167 69.48-57.624 20.246-25.813 32.824-52.982 32.824-70.906 0-4.136-3.364-7.5-7.5-7.5h-85.561l-18.961 18.962c-1.407 1.406-3.314 2.196-5.304 2.196s-3.896-.79-5.304-2.196l-34.156-34.157c-2.929-2.93-2.929-7.679 0-10.607 2.93-2.928 7.678-2.928 10.607 0l28.853 28.854 22.325-22.326c1.417-1.416 2.197-3.299 2.197-5.303s-.78-3.887-2.197-5.303l-39.46-39.461-80.661 80.662 39.46 39.459c2.924 2.927 7.683 2.925 10.606 0l5.304-5.303-28.854-28.853c-2.93-2.93-2.93-7.678-.001-10.607 2.93-2.928 7.679-2.928 10.606 0l28.854 28.854 5.516-5.517c2.931-2.929 7.679-2.927 10.607 0 2.929 2.93 2.929 7.678 0 10.607l-21.426 21.426c-4.25 4.25-9.9 6.59-15.91 6.59-6.011 0-11.661-2.34-15.911-6.59l-40.361-40.362c-7.177 3.442-15.851 2.893-22.685-1.933l-27.036-19.094c-.044.001-.088.001-.133.001h-4.711c-12.406 0-22.5 10.094-22.5 22.5v41.454c0 6.121-2.541 12.056-6.971 16.281-4.494 4.286-10.379 6.49-16.608 6.192-12.012-.565-21.421-10.623-21.421-22.897v-63.53h-21.763c-4.143 0-7.5-3.357-7.5-7.5s3.357-7.5 7.5-7.5h72.869l-6.488-4.583c-7.359-5.196-10.902-14.248-9.028-23.06l9.65-45.369c4.155-19.54-1.797-39.639-15.923-53.764l-150.88-150.88c-4.328-4.329-6.728-10.322-6.583-16.443.146-6.208 2.762-11.934 7.364-16.121 8.894-8.095 22.658-7.637 31.339 1.043l150.583 150.583c14.125 14.126 34.227 20.079 53.764 15.922 4.049-.863 8.034 1.724 8.896 5.775.861 4.052-1.724 8.034-5.775 8.896-24.526 5.22-49.76-2.255-67.492-19.986l-150.583-150.583c-2.955-2.957-7.727-3.206-10.636-.557-1.54 1.401-2.415 3.313-2.464 5.381-.049 2.071.73 4.019 2.194 5.483l150.883 150.881c17.731 17.732 25.204 42.963 19.987 67.492l-9.65 45.369c-.625 2.938.557 5.954 3.009 7.687l54.763 38.676c2.993 2.112 7.042 1.767 9.631-.823l91.267-91.269c2.59-2.589 2.936-6.639.823-9.63l-38.675-54.762c-1.732-2.451-4.748-3.636-7.687-3.009l-14.114 3.001c-4.049.859-8.033-1.724-8.896-5.776-.861-4.051 1.725-8.034 5.776-8.896l14.113-3.001c8.809-1.877 17.861 1.669 23.059 9.027l38.676 54.762c4.825 6.833 5.374 15.507 1.933 22.686l40.362 40.361c6.881 6.882 8.364 17.146 4.451 25.487h72.442c12.406 0 22.5 10.094 22.5 22.5 0 44.851-55.766 116.72-108.305 140.945v10.085c.001 12.408-10.093 22.501-22.499 22.501zm-217.891-181.03v63.53c0 4.179 3.197 7.729 7.127 7.914 2.075.103 4.05-.634 5.549-2.063 1.499-1.43 2.324-3.357 2.324-5.428v-41.454c0-8.435 2.8-16.229 7.518-22.5h-22.518z"/></symbol><symbol id="hair-treatment" viewBox="0 0 478.217 478.217"><title>hair-treatment</title><path d="m3.549 269.643 21.159 14.106 10.165 50.825c3.762 18.6 20.091 31.986 39.067 32.027h13.81c9.276-.085 35.995 2.309 48.606 14.732 4.659 4.478 7.223 10.706 7.067 17.166.126 39.372.126 71.371.126 71.689 0 4.401 3.568 7.968 7.968 7.968h302.794c13.196-.015 23.89-10.709 23.905-23.905v-111.555c-.025-18.924-13.337-35.229-31.873-39.039v-56.58c0-4.401-3.568-7.968-7.968-7.968h-.547c-3.088-22.574-19.404-41.794-47.683-55.932-10.103-4.973-20.634-9.026-31.465-12.109l-.053-19.423c.233-4.962 2.072-63.979-38.945-107.332-27.772-29.364-68.308-44.252-120.476-44.252-165.431 0-167.333 76.429-167.333 79.683v125.376l-30.822 53.94c-2.078 3.636-.986 8.26 2.498 10.583zm458.731 73.053v111.556c-.005 4.399-3.57 7.963-7.968 7.968h-191.238c-4.399-.005-7.963-3.57-7.968-7.968v-111.556c.015-13.196 10.709-23.89 23.905-23.905h159.365c13.196.015 23.89 10.709 23.904 23.905zm-175.301-87.651h143.429v15.937h-39.841c-4.401 0-7.968 3.568-7.968 7.968 0 4.401 3.568 7.968 7.968 7.968h39.841v15.936h-143.429v-15.936h71.714c4.401 0 7.968-3.568 7.968-7.968 0-4.401-3.568-7.968-7.968-7.968h-71.714zm134.702-15.937h-125.86c.55-3.074 1.401-6.086 2.54-8.993 4.014-10.031 10.716-14.912 20.49-14.912 13.423 0 22.112-2.659 27.357-8.367 5.677-6.185 5.718-13.992 5.179-21.245 20.142 5.448 64.025 20.936 70.294 53.517zm-355.376-190.366c31.422-27.067 89.616-32.745 132.902-32.745 47.543 0 84.147 13.174 108.795 39.154 37.229 39.244 34.732 95.314 34.702 95.865-.008.153-.012.308-.012.463l.044 15.927c-4.388-.001-7.946 3.556-7.946 7.944v.012c0 3.076.25 5.987.491 8.804.444 5.179.864 10.06-.812 11.891-.885.965-4.183 3.21-15.616 3.21-16.325 0-28.857 8.854-35.287 24.93-1.874 4.801-3.178 9.806-3.885 14.912h-.669c-4.401 0-7.968 3.568-7.968 7.968v56.58c-18.537 3.81-31.848 20.115-31.873 39.039v111.556c-.001 2.715.462 5.41 1.371 7.968h-33.367v-184.307c18.462-4.968 31.997-27.235 31.997-54.741 0-31.275-17.5-55.778-39.841-55.778h-.122c-12.019 0-20.429 6.628-25.435 12.322l-125.485-103.338c1.145-5.423 5.006-16.431 18.016-27.636zm-19.545 162.447c.688-1.204 1.05-2.567 1.05-3.953v-110.608l122.427 100.822c3.397 2.797 8.419 2.31 11.216-1.087.381-.463.708-.967.976-1.503.058-.116 6.066-11.532 16.777-11.532h.122c12.957 0 23.905 18.244 23.905 39.841s-10.947 39.841-23.905 39.841h-.122c-4.401 0-7.968 3.568-7.968 7.968v191.24h-31.752c-.008-11.931-.034-36.021-.119-63.77.167-10.718-4.113-21.026-11.822-28.473-19.885-19.581-58.367-19.34-59.892-19.313h-13.714c-11.386-.025-21.183-8.057-23.441-19.217l-10.812-54.06c-.415-2.072-1.635-3.895-3.393-5.067l-17.716-11.812z"/><path d="m422.439 350.664h-127.492c-4.401 0-7.968 3.568-7.968 7.968v63.746c0 4.401 3.568 7.968 7.968 7.968h127.492c4.401 0 7.968-3.568 7.968-7.968v-63.746c0-4.4-3.567-7.968-7.968-7.968zm-7.968 63.746h-111.556v-47.81h111.556z"/></symbol><symbol id="menu" viewBox="0 0 384 384"><title>menu</title><rect x="0" y="277.333" width="384" height="42.667"/><rect x="0" y="170.667" width="384" height="42.667"/><rect x="0" y="64" width="384" height="42.667"/></symbol></svg>